<svg width="48" height="49" viewBox="0 0 48 49" fill="none" xmlns="http://www.w3.org/2000/svg">
<rect y="0.5" width="48" height="48" rx="16" fill="#F5F5F5"/>
<mask id="mask0_2025_11554" style="mask-type:luminance" maskUnits="userSpaceOnUse" x="16" y="21" width="16" height="17">
<path d="M31 21.2861C30.4473 21.2861 30 21.7014 30 22.2147V24.0718C30 24.8436 29.8302 25.5793 29.5233 26.2481C28.6088 28.242 26.4774 29.6432 24 29.6432C21.5226 29.6432 19.3036 28.1838 18.4218 26.1244C18.1497 25.4889 18 24.7963 18 24.0718V22.2147C18 21.7014 17.5521 21.2861 17 21.2861C16.4478 21.2861 16 21.7014 16 22.2147V24.0718C16 26.1547 16.9287 28.0383 18.4218 29.3867C19.6389 30.486 21.2306 31.2296 23 31.4358V36.1432H19.9999C19.4477 36.1432 18.9999 36.5585 18.9999 37.0718C18.9999 37.585 19.4477 38.0003 19.9999 38.0003H28.0001C28.5528 38.0003 29.0001 37.585 29.0001 37.0718C29.0001 36.5585 28.5528 36.1432 28.0001 36.1432H25V31.4358C26.7429 31.2327 28.3135 30.508 29.5233 29.4359C31.0484 28.0843 32 26.1802 32 24.0718V22.2147C32 21.7014 31.5527 21.2861 31 21.2861Z" fill="white"/>
</mask>
<g mask="url(#mask0_2025_11554)">
<path d="M33.2527 15.0508H25.4976V22.2519H33.2527V15.0508Z" fill="#B0B4DE"/>
<path d="M33.2527 22.252H25.4976V29.4531H33.2527V22.252Z" fill="#B0B4DE"/>
<path d="M33.2527 29.4531H25.4976V36.6543H33.2527V29.4531Z" fill="#B0B4DE"/>
<path d="M33.2527 36.6543H25.4976V43.8554H33.2527V36.6543Z" fill="#B0B4DE"/>
<path d="M25.4983 15.0508H17.7432V22.2519H25.4983V15.0508Z" fill="#B0B4DE"/>
<path d="M25.4983 22.252H17.7432V29.4531H25.4983V22.252Z" fill="#B0B4DE"/>
<path d="M25.4983 29.4531H17.7432V36.6543H25.4983V29.4531Z" fill="#B0B4DE"/>
<path d="M25.4983 36.6543H17.7432V43.8554H25.4983V36.6543Z" fill="#B0B4DE"/>
<path d="M17.7429 15.0508H9.98779V22.2519H17.7429V15.0508Z" fill="#B0B4DE"/>
<path d="M17.7429 22.252H9.98779V29.4531H17.7429V22.252Z" fill="#B0B4DE"/>
<path d="M17.7429 29.4531H9.98779V36.6543H17.7429V29.4531Z" fill="#B0B4DE"/>
<path d="M17.7429 36.6543H9.98779V43.8554H17.7429V36.6543Z" fill="#B0B4DE"/>
</g>
<rect x="19" y="11" width="10" height="17" rx="5" fill="#8187CB"/>
<path d="M19 21H23C23.5523 21 24 21.4477 24 22V22C24 22.5523 23.5523 23 23 23H19V21Z" fill="#B0B4DE"/>
<path d="M19 17H23C23.5523 17 24 17.4477 24 18V18C24 18.5523 23.5523 19 23 19H19V17Z" fill="#B0B4DE"/>
</svg>
