<svg width="48" height="48" viewBox="0 0 48 48" fill="none" xmlns="http://www.w3.org/2000/svg">
<path d="M48 24C48 37.2548 37.2548 48 24 48C10.7452 48 0 37.2548 0 24C0 10.7452 10.7452 0 24 0C37.2548 0 48 10.7452 48 24Z" fill="#FFEFE5"/>
<path fill-rule="evenodd" clip-rule="evenodd" d="M24 11C25.1046 11 26 11.9722 26 13.1715V27.8286C26 29.0278 25.1046 30 24 30C22.8954 30 22 29.0278 22 27.8286V13.1715C22 11.9722 22.8954 11 24 11Z" fill="#FF6600"/>
<path d="M22 36C22 34.8954 22.8954 34 24 34C25.1046 34 26 34.8954 26 36C26 37.1046 25.1046 38 24 38C22.8954 38 22 37.1046 22 36Z" fill="#FF6600"/>
</svg>
