<svg width="24" height="40" viewBox="0 0 24 40" fill="none" xmlns="http://www.w3.org/2000/svg">
<mask id="path-1-inside-1_3800_10951" fill="white">
<path d="M0 0H20C22.2091 0 24 1.79086 24 4V36C24 38.2091 22.2091 40 20 40H0V0Z"/>
</mask>
<path d="M0 0H20C22.2091 0 24 1.79086 24 4V36C24 38.2091 22.2091 40 20 40H0V0Z" fill="white"/>
<path d="M0 -1H20C22.7614 -1 25 1.23858 25 4H23C23 2.34315 21.6569 1 20 1H0V-1ZM25 36C25 38.7614 22.7614 41 20 41H0V39H20C21.6569 39 23 37.6569 23 36H25ZM0 40V0V40ZM20 -1C22.7614 -1 25 1.23858 25 4V36C25 38.7614 22.7614 41 20 41V39C21.6569 39 23 37.6569 23 36V4C23 2.34315 21.6569 1 20 1V-1Z" fill="#D6D6D6" mask="url(#path-1-inside-1_3800_10951)"/>
<path fill-rule="evenodd" clip-rule="evenodd" d="M10.0274 14.8791L15.1 19.4882C15.4112 19.771 15.4112 20.2296 15.1 20.5124L10.0274 25.1215C9.71616 25.4044 9.21148 25.4044 8.9002 25.1215C8.58893 24.8387 8.58893 24.3801 8.9002 24.0973L13.4091 20.0003L8.9002 15.9034C8.58893 15.6205 8.58893 15.162 8.9002 14.8791C9.21148 14.5963 9.71616 14.5963 10.0274 14.8791Z" fill="#333333"/>
</svg>
