<svg width="24" height="40" viewBox="0 0 24 40" fill="none" xmlns="http://www.w3.org/2000/svg">
<mask id="path-1-inside-1_3800_10040" fill="white">
<path d="M0 0H20C22.2091 0 24 1.79086 24 4V36C24 38.2091 22.2091 40 20 40H0V0Z"/>
</mask>
<path d="M0 0H20C22.2091 0 24 1.79086 24 4V36C24 38.2091 22.2091 40 20 40H0V0Z" fill="white"/>
<path d="M0 -1H20C22.7614 -1 25 1.23858 25 4H23C23 2.34315 21.6569 1 20 1H0V-1ZM25 36C25 38.7614 22.7614 41 20 41H0V39H20C21.6569 39 23 37.6569 23 36H25ZM0 40V0V40ZM20 -1C22.7614 -1 25 1.23858 25 4V36C25 38.7614 22.7614 41 20 41V39C21.6569 39 23 37.6569 23 36V4C23 2.34315 21.6569 1 20 1V-1Z" fill="#D6D6D6" mask="url(#path-1-inside-1_3800_10040)"/>
<path fill-rule="evenodd" clip-rule="evenodd" d="M13.9726 14.8791L8.90004 19.4882C8.58877 19.771 8.58877 20.2296 8.90004 20.5124L13.9726 25.1215C14.2838 25.4044 14.7885 25.4044 15.0998 25.1215C15.4111 24.8387 15.4111 24.3801 15.0998 24.0973L10.5909 20.0003L15.0998 15.9034C15.4111 15.6205 15.4111 15.162 15.0998 14.8791C14.7885 14.5963 14.2838 14.5963 13.9726 14.8791Z" fill="#333333"/>
</svg>
