<svg width="56" height="56" viewBox="0 0 56 56" fill="none" xmlns="http://www.w3.org/2000/svg">
<rect x="7.75" y="41.7842" width="41.3514" height="1.21622" fill="white"/>
<path d="M14.439 33.2705C15.4119 34.2435 20.52 39.3516 22.9525 41.784" stroke="white"/>
<path d="M43.5205 22.3247C43.5205 22.0486 43.2966 21.8247 43.0205 21.8247L38.5205 21.8247C38.2444 21.8247 38.0205 22.0486 38.0205 22.3247C38.0205 22.6009 38.2444 22.8247 38.5205 22.8247L42.5205 22.8247L42.5205 26.8247C42.5205 27.1009 42.7444 27.3247 43.0205 27.3247C43.2966 27.3247 43.5205 27.1009 43.5205 26.8247L43.5205 22.3247ZM23.9146 42.1377L43.374 22.6783L42.6669 21.9712L23.2075 41.4306L23.9146 42.1377Z" fill="white"/>
<path d="M21.6358 21.2401L22.0407 20.5L22.4457 21.2401C23.0237 22.2968 23.8926 23.1657 24.9493 23.7437L25.6894 24.1486L24.9493 24.5536C23.8926 25.1316 23.0237 26.0005 22.4457 27.0572L22.0407 27.7973L21.6358 27.0572C21.0578 26.0005 20.1889 25.1316 19.1322 24.5536L18.3921 24.1486L19.1322 23.7437C20.1889 23.1657 21.0578 22.2968 21.6358 21.2401Z" fill="white"/>
<path d="M38.7977 34.3714L39.0677 33.8779L39.3376 34.3714C39.723 35.0758 40.3022 35.6551 41.0067 36.0404L41.5001 36.3104L41.0067 36.5803C40.3022 36.9657 39.723 37.5449 39.3376 38.2494L39.0677 38.7428L38.7977 38.2494C38.4124 37.5449 37.8331 36.9657 37.1287 36.5803L36.6353 36.3104L37.1287 36.0404C37.8331 35.6551 38.4124 35.0758 38.7977 34.3714Z" fill="white"/>
</svg>
