<svg width="56" height="56" viewBox="0 0 56 56" fill="none" xmlns="http://www.w3.org/2000/svg">
<path fill-rule="evenodd" clip-rule="evenodd" d="M11.7647 11H5V12H5.17574L5.17574 17.5943H6.17574L6.17574 12H11.7647V11Z" fill="white"/>
<path fill-rule="evenodd" clip-rule="evenodd" d="M44.2353 11H51V12H50.8243L50.8243 17.5943H49.8243L49.8243 12H44.2353V11Z" fill="white"/>
<path fill-rule="evenodd" clip-rule="evenodd" d="M44.2353 43.1211L51 43.1211L51 42.1211L50.8243 42.1211L50.8243 36.5268L49.8243 36.5268L49.8243 42.1211L44.2353 42.1211L44.2353 43.1211Z" fill="white"/>
<path fill-rule="evenodd" clip-rule="evenodd" d="M11.7647 43.1211L5 43.1211L5 42.1211L5.17574 42.1211L5.17574 36.5268L6.17574 36.5268L6.17574 42.1211L11.7647 42.1211L11.7647 43.1211Z" fill="white"/>
<rect x="16.3242" y="19.4453" width="23.3529" height="15.2353" rx="0.5" stroke="white"/>
</svg>
