<svg width="24" height="24" viewBox="0 0 24 24" fill="none" xmlns="http://www.w3.org/2000/svg">
<path d="M17 11.6777C17 14.817 14.7611 17.3625 12 17.3625C9.23889 17.3625 7 14.817 7 11.6777" stroke="white" stroke-width="2" stroke-linecap="round" stroke-linejoin="round"/>
<path d="M11.9995 17.377V19.5586" stroke="white" stroke-width="2" stroke-linecap="round" stroke-linejoin="round"/>
<path d="M10.334 20H13.6673" stroke="white" stroke-width="2" stroke-linecap="round" stroke-linejoin="round"/>
<path d="M11.9995 14.6903C10.4661 14.6903 9.22168 13.1725 9.22168 11.3023V7.388C9.22168 5.51783 10.4661 4 11.9995 4C13.5328 4 14.7772 5.51783 14.7772 7.388V11.3023C14.7772 13.1725 13.5328 14.6903 11.9995 14.6903Z" fill="white"/>
<path fill-rule="evenodd" clip-rule="evenodd" d="M18.7774 4.08397C19.0071 4.23714 19.0692 4.54758 18.916 4.77734C18.6915 5.11418 17.9773 5.94267 17.0045 7.03422C16.0168 8.14254 14.7274 9.56019 13.3189 11.1C12.3786 12.1279 11.3852 13.2103 10.3922 14.2922C8.40796 16.4542 6.42531 18.6144 4.87106 20.3351C4.68596 20.5401 4.36979 20.5561 4.16486 20.371C3.95993 20.1859 3.94386 19.8698 4.12895 19.6648C5.68581 17.9412 7.67353 15.7755 9.65962 13.6115C10.6518 12.5305 11.6436 11.4498 12.5811 10.425C13.9892 8.88562 15.2749 7.47203 16.258 6.36889C17.256 5.24898 17.9085 4.4858 18.084 4.22264C18.2372 3.99288 18.5476 3.93079 18.7774 4.08397Z" fill="white"/>
<path fill-rule="evenodd" clip-rule="evenodd" d="M18.7774 5.08397C19.0071 5.23714 19.0692 5.54758 18.916 5.77734C18.6915 6.11418 17.9773 6.94267 17.0045 8.03422C16.0168 9.14254 14.7274 10.5602 13.3189 12.1C12.3786 13.1279 11.3852 14.2103 10.3922 15.2922C8.40796 17.4542 6.42531 19.6144 4.87106 21.3351C4.68596 21.5401 4.36979 21.5561 4.16486 21.371C3.95993 21.1859 3.94386 20.8698 4.12895 20.6648C5.68581 18.9412 7.67353 16.7755 9.65962 14.6115C10.6518 13.5305 11.6436 12.4498 12.5811 11.425C13.9892 9.88562 15.2749 8.47203 16.258 7.36889C17.256 6.24898 17.9085 5.4858 18.084 5.22264C18.2372 4.99288 18.5476 4.93079 18.7774 5.08397Z" fill="#2C2724"/>
</svg>
