<svg width="24" height="24" viewBox="0 0 24 24" fill="none" xmlns="http://www.w3.org/2000/svg">
<path d="M20 12V20H12.0315C7.59515 20 4 16.419 4 12C4 7.58104 7.59515 4 12.0315 4C16.4679 4 20 7.58104 20 12Z" fill="white"/>
<path d="M8.12253 13.2107C8.65808 13.2107 9.09223 12.7783 9.09223 12.2448C9.09223 11.7114 8.65808 11.2789 8.12253 11.2789C7.58698 11.2789 7.15283 11.7114 7.15283 12.2448C7.15283 12.7783 7.58698 13.2107 8.12253 13.2107Z" fill="#424242"/>
<path d="M12.0005 13.2107C12.536 13.2107 12.9702 12.7783 12.9702 12.2448C12.9702 11.7114 12.536 11.2789 12.0005 11.2789C11.4649 11.2789 11.0308 11.7114 11.0308 12.2448C11.0308 12.7783 11.4649 13.2107 12.0005 13.2107Z" fill="#424242"/>
<path d="M15.8799 13.2107C16.4154 13.2107 16.8495 12.7783 16.8495 12.2448C16.8495 11.7114 16.4154 11.2789 15.8799 11.2789C15.3443 11.2789 14.9102 11.7114 14.9102 12.2448C14.9102 12.7783 15.3443 13.2107 15.8799 13.2107Z" fill="#424242"/>
</svg>
