<svg width="32" height="40" viewBox="0 0 32 40" fill="none" xmlns="http://www.w3.org/2000/svg">
<path fill-rule="evenodd" clip-rule="evenodd" d="M4 0C1.79086 0 0 1.79086 0 4V36C0 38.2091 1.79086 40 4 40H28C30.2091 40 32 38.2091 32 36V4C32 1.79086 30.2091 0 28 0H4ZM24.3174 26.2609H7.99273C6.87041 26.2609 5.95215 27.2 5.95215 28.3479C5.95215 29.4957 6.87041 30.4348 7.99273 30.4348H24.3174C25.4397 30.4348 26.3579 29.4957 26.3579 28.3479C26.3579 27.2 25.4397 26.2609 24.3174 26.2609ZM24.3174 17.9131H7.99273C6.87041 17.9131 5.95215 18.8522 5.95215 20C5.95215 21.1479 6.87041 22.087 7.99273 22.087H24.3174C25.4397 22.087 26.3579 21.1479 26.3579 20C26.3579 18.8522 25.4397 17.9131 24.3174 17.9131ZM18.1956 9.56527H7.99273C6.87041 9.56527 5.95215 10.5044 5.95215 11.6522C5.95215 12.8 6.87041 13.7392 7.99273 13.7392H18.1956C19.3179 13.7392 20.2362 12.8 20.2362 11.6522C20.2362 10.5044 19.3179 9.56527 18.1956 9.56527Z" fill="white"/>
</svg>
