<svg width="48" height="48" viewBox="0 0 48 48" fill="none" xmlns="http://www.w3.org/2000/svg">
<rect width="48" height="48" rx="16" fill="#F5F5F5"/>
<g clip-path="url(#clip0_3735_9455)">
<path d="M30 26.5004V30.5004C30 31.0504 29.55 31.5004 29 31.5004H17C16.45 31.5004 16 31.0504 16 30.5004V18.5004C16 17.9504 16.45 17.5004 17 17.5004H20.02C20.57 17.5004 21.02 17.0504 21.02 16.5004C21.02 15.9504 20.57 15.5004 20.02 15.5004H16C14.9 15.5004 14 16.4004 14 17.5004V31.5004C14 32.6004 14.9 33.5004 16 33.5004H30C31.1 33.5004 32 32.6004 32 31.5004V26.5004C32 25.9504 31.55 25.5004 31 25.5004C30.45 25.5004 30 25.9504 30 26.5004ZM27.5 29.5004H18.52C18.1 29.5004 17.87 29.0204 18.13 28.6904L19.87 26.4604C20.07 26.2104 20.45 26.2004 20.65 26.4504L22.21 28.3304L24.56 25.3104C24.76 25.0504 25.16 25.0504 25.35 25.3204L27.9 28.7104C28.15 29.0304 27.91 29.5004 27.5 29.5004ZM31.3 20.3904C31.78 19.6204 32.05 18.7204 31.99 17.7304C31.86 15.5804 30.15 13.7604 28.02 13.5304C25.3 13.2304 23 15.3404 23 18.0004C23 20.4904 25.01 22.5004 27.49 22.5004C28.37 22.5004 29.19 22.2404 29.88 21.8004L32.29 24.2104C32.68 24.6004 33.32 24.6004 33.71 24.2104C34.1 23.8204 34.1 23.1804 33.71 22.7904L31.3 20.3904ZM27.5 20.5004C26.12 20.5004 25 19.3804 25 18.0004C25 16.6204 26.12 15.5004 27.5 15.5004C28.88 15.5004 30 16.6204 30 18.0004C30 19.3804 28.88 20.5004 27.5 20.5004Z" fill="#FF9752"/>
</g>
<defs>
<clipPath id="clip0_3735_9455">
<rect width="24" height="24" fill="white" transform="translate(12 11.5)"/>
</clipPath>
</defs>
</svg>
