<svg width="48" height="49" viewBox="0 0 48 49" fill="none" xmlns="http://www.w3.org/2000/svg">
<rect y="0.5" width="48" height="48" rx="16" fill="#F5F5F5"/>
<g clip-path="url(#clip0_3725_12874)">
<path d="M18 14.5C16.9 14.5 16.01 15.4 16.01 16.5L16 32.5C16 33.6 16.89 34.5 17.99 34.5H30C31.1 34.5 32 33.6 32 32.5V21.33C32 20.8 31.79 20.29 31.41 19.92L26.58 15.09C26.21 14.71 25.7 14.5 25.17 14.5H18ZM25 20.5V16L30.5 21.5H26C25.45 21.5 25 21.05 25 20.5Z" fill="#FFA366"/>
</g>
<defs>
<clipPath id="clip0_3725_12874">
<rect width="24" height="24" fill="white" transform="translate(12 12.5)"/>
</clipPath>
</defs>
</svg>
