<svg width="52" height="52" viewBox="0 0 52 52" fill="none" xmlns="http://www.w3.org/2000/svg">
<g id="Group">
<g id="Group_2">
<path id="Vector" d="M26 52C40.3594 52 52 40.3594 52 26C52 11.6406 40.3594 0 26 0C11.6406 0 0 11.6406 0 26C0 40.3594 11.6406 52 26 52Z" fill="#F94849"/>
</g>
<path id="Vector_2" d="M29.9923 28.9858C29.7972 28.9858 29.6052 28.8928 29.4844 28.7225C29.2892 28.4437 29.3574 28.0565 29.6361 27.8583L35.4531 23.7851C35.735 23.59 36.1191 23.6581 36.3173 23.9369C36.5125 24.2157 36.4443 24.6029 36.1656 24.8011L30.3486 28.8743C30.2401 28.9486 30.1162 28.9858 29.9954 28.9858H29.9923Z" fill="black"/>
<path id="Vector_3" d="M30.1499 32.8014C29.9145 32.8014 29.6884 32.6651 29.5862 32.439C29.4437 32.1261 29.5831 31.7606 29.8959 31.6182L42.4468 25.9251C42.7565 25.7826 43.1251 25.922 43.2676 26.2348C43.4101 26.5476 43.2707 26.9131 42.9579 27.0556L30.407 32.7487C30.3234 32.7859 30.2366 32.8045 30.1499 32.8045V32.8014Z" fill="black"/>
<path id="Vector_4" d="M31.5786 32.9611C32.0618 34.5346 33.5454 35.4762 34.8928 35.0643C36.2402 34.6523 36.9402 33.0416 36.457 31.465C35.9738 29.8915 35.5805 30.0681 34.2331 30.48C33.7282 30.6349 33.1025 30.8641 32.6751 31.1553C31.7334 31.8027 31.2781 31.973 31.5817 32.958L31.5786 32.9611Z" fill="black"/>
<path id="Vector_5" d="M21.1372 28.9858C21.0133 28.9858 20.8894 28.9486 20.7841 28.8743L14.9671 24.8011C14.6852 24.606 14.6202 24.2188 14.8153 23.9369C15.0104 23.6581 15.3976 23.59 15.6795 23.7851L21.4965 27.8583C21.7784 28.0534 21.8434 28.4406 21.6483 28.7225C21.5275 28.8959 21.3354 28.9858 21.1403 28.9858H21.1372Z" fill="black"/>
<path id="Vector_6" d="M20.9789 32.8012C20.8922 32.8012 20.8055 32.7826 20.7218 32.7454L8.17096 27.0523C7.85812 26.9099 7.72183 26.5444 7.86122 26.2315C8.0037 25.9187 8.3692 25.7824 8.68204 25.9218L21.2329 31.6149C21.5458 31.7574 21.682 32.1229 21.5427 32.4357C21.4404 32.6649 21.2143 32.7981 20.9789 32.7981V32.8012Z" fill="black"/>
<path id="Vector_7" d="M19.5509 32.9611C19.0677 34.5346 17.584 35.4762 16.2367 35.0643C14.8893 34.6523 14.1892 33.0416 14.6724 31.465C15.1556 29.8915 15.549 30.0681 16.8964 30.48C17.4013 30.6349 18.027 30.8641 18.4544 31.1553C19.3961 31.8027 19.8514 31.973 19.5478 32.958L19.5509 32.9611Z" fill="black"/>
<path id="Vector_8" d="M30.7298 39.5443C30.5223 39.5443 30.3178 39.439 30.2032 39.2501C29.4753 38.0699 28.1992 37.373 26.6071 37.2832C24.7083 37.1779 22.8096 37.9708 21.7658 39.3058C21.5551 39.5753 21.1649 39.6218 20.8954 39.4111C20.6259 39.2005 20.5794 38.8102 20.7901 38.5407C22.0755 36.8991 24.3862 35.9172 26.6752 36.0442C28.6545 36.1526 30.324 37.0849 31.2594 38.5965C31.4391 38.8877 31.3493 39.2686 31.0581 39.4483C30.9559 39.5102 30.8444 39.5412 30.7329 39.5412L30.7298 39.5443Z" fill="black"/>
</g>
</svg>
