<svg width="52" height="52" viewBox="0 0 52 52" fill="none" xmlns="http://www.w3.org/2000/svg">
<g id="Group">
<g id="Group_2">
<path id="Vector" d="M26 52C40.3594 52 52 40.3594 52 26C52 11.6406 40.3594 0 26 0C11.6406 0 0 11.6406 0 26C0 40.3594 11.6406 52 26 52Z" fill="#FFB800"/>
</g>
<path id="Vector_2" d="M26.1823 31.99C22.1587 31.99 18.4356 30.3329 16.382 27.604C16.1775 27.3315 16.2302 26.9412 16.5059 26.7368C16.7784 26.5323 17.1687 26.585 17.3732 26.8607C19.2347 29.3324 22.8371 30.8595 26.5881 30.7449C30.0541 30.6395 32.975 29.1714 34.6012 26.7182C34.7901 26.4332 35.1742 26.3558 35.4592 26.5447C35.7442 26.7337 35.8216 27.1177 35.6326 27.4027C33.7835 30.1966 30.5002 31.8692 26.6253 31.9838C26.4766 31.9869 26.331 31.99 26.1823 31.99Z" fill="black"/>
<g id="Group_3">
<path id="Vector_3" d="M11.4238 17.4779C11.3433 17.4779 11.2596 17.4624 11.1791 17.4283C10.8632 17.2951 10.7176 16.9296 10.8539 16.6168C11.8419 14.303 14.196 12.6675 16.7111 12.5498C19.217 12.4321 21.7228 13.8384 22.9216 16.053C23.0857 16.3535 22.9742 16.7314 22.6737 16.8925C22.3733 17.0566 21.9954 16.9451 21.8343 16.6447C20.8555 14.8419 18.8236 13.6928 16.77 13.7888C14.7195 13.8848 12.8022 15.2167 11.9937 17.1062C11.8946 17.3416 11.6654 17.481 11.4238 17.481V17.4779Z" fill="black"/>
<path id="Vector_4" d="M40.574 17.4563C40.3355 17.4563 40.1063 17.3169 40.0072 17.0846C39.1863 15.2044 37.2566 13.8849 35.2061 13.8044C33.1618 13.7208 31.1298 14.8854 30.1634 16.6974C30.0024 16.9979 29.6276 17.1125 29.324 16.9514C29.0236 16.7903 28.909 16.4155 29.0701 16.112C30.2533 13.8911 32.7467 12.4663 35.2557 12.5654C37.7708 12.6645 40.1373 14.2814 41.1408 16.589C41.2771 16.9018 41.1346 17.2673 40.8218 17.4036C40.7413 17.4377 40.6576 17.4563 40.574 17.4563Z" fill="black"/>
</g>
<g id="Group_4">
<path id="Vector_5" d="M10.6866 23.6857C12.7582 23.6857 14.4376 22.7163 14.4376 21.5206C14.4376 20.3248 12.7582 19.3555 10.6866 19.3555C8.61493 19.3555 6.93555 20.3248 6.93555 21.5206C6.93555 22.7163 8.61493 23.6857 10.6866 23.6857Z" fill="#FF6600"/>
<path id="Vector_6" d="M41.3116 23.6857C43.3832 23.6857 45.0626 22.7163 45.0626 21.5206C45.0626 20.3248 43.3832 19.3555 41.3116 19.3555C39.24 19.3555 37.5605 20.3248 37.5605 21.5206C37.5605 22.7163 39.24 23.6857 41.3116 23.6857Z" fill="#FF6600"/>
</g>
</g>
</svg>
