<svg width="52" height="52" viewBox="0 0 52 52" fill="none" xmlns="http://www.w3.org/2000/svg">
<g id="Group">
<g id="Group_2">
<g id="Group_3">
<path id="Vector" d="M26 52C40.3594 52 52 40.3594 52 26C52 11.6406 40.3594 0 26 0C11.6406 0 0 11.6406 0 26C0 40.3594 11.6406 52 26 52Z" fill="#FFB800"/>
</g>
<g id="Group_4">
<path id="Vector_2" d="M13.5541 30.2565C14.9072 30.2565 16.0042 29.6241 16.0042 28.8441C16.0042 28.064 14.9072 27.4316 13.5541 27.4316C12.201 27.4316 11.104 28.064 11.104 28.8441C11.104 29.6241 12.201 30.2565 13.5541 30.2565Z" fill="#FF6600"/>
<path id="Vector_3" d="M38.4457 30.2565C39.7988 30.2565 40.8958 29.6241 40.8958 28.8441C40.8958 28.064 39.7988 27.4316 38.4457 27.4316C37.0925 27.4316 35.9956 28.064 35.9956 28.8441C35.9956 29.6241 37.0925 30.2565 38.4457 30.2565Z" fill="#FF6600"/>
</g>
<g id="Group_5">
<path id="Vector_4" d="M16.7138 25.1748C17.9078 25.1748 18.8758 23.8712 18.8758 22.2632C18.8758 20.6551 17.9078 19.3516 16.7138 19.3516C15.5197 19.3516 14.5518 20.6551 14.5518 22.2632C14.5518 23.8712 15.5197 25.1748 16.7138 25.1748Z" fill="black"/>
<path id="Vector_5" d="M34.1122 25.1748C35.3063 25.1748 36.2742 23.8712 36.2742 22.2632C36.2742 20.6551 35.3063 19.3516 34.1122 19.3516C32.9182 19.3516 31.9502 20.6551 31.9502 22.2632C31.9502 23.8712 32.9182 25.1748 34.1122 25.1748Z" fill="black"/>
</g>
<path id="Vector_6" d="M26.1516 36.6696C22.8187 36.6696 19.7306 35.2943 18.027 33.0301C17.8226 32.7575 17.8752 32.3672 18.1509 32.1628C18.4265 31.9584 18.8137 32.011 19.0182 32.2867C20.5235 34.2877 23.4537 35.5204 26.4799 35.4275C29.2862 35.3439 31.6496 34.1576 32.9598 32.1752C33.1487 31.8902 33.5328 31.8128 33.8178 32.0017C34.1027 32.1907 34.1802 32.5748 33.9912 32.8597C32.4549 35.1828 29.7291 36.5705 26.514 36.6665C26.3932 36.6696 26.2693 36.6727 26.1485 36.6727L26.1516 36.6696Z" fill="black"/>
</g>
</g>
</svg>
