<svg width="52" height="52" viewBox="0 0 52 52" fill="none" xmlns="http://www.w3.org/2000/svg">
<g id="Group">
<g id="Group_2">
<path id="Vector" d="M26 52C40.3594 52 52 40.3594 52 26C52 11.6406 40.3594 0 26 0C11.6406 0 0 11.6406 0 26C0 40.3594 11.6406 52 26 52Z" fill="#FF6600"/>
</g>
<path id="Vector_2" d="M30.7264 39.5443C30.5188 39.5443 30.3144 39.439 30.1998 39.2501C29.4719 38.0699 28.1927 37.373 26.6037 37.2832C24.708 37.181 22.8062 37.9708 21.7623 39.3058C21.5517 39.5753 21.1614 39.6218 20.892 39.4111C20.6225 39.2005 20.576 38.8102 20.7866 38.5407C22.0721 36.8991 24.3766 35.9172 26.6718 36.0442C28.6511 36.1526 30.3206 37.0849 31.256 38.5965C31.4357 38.8877 31.3459 39.2686 31.0547 39.4483C30.9525 39.5102 30.841 39.5412 30.7295 39.5412L30.7264 39.5443Z" fill="black"/>
<g id="Group_3">
<path id="Vector_3" d="M14.7033 29.5344C12.659 29.5344 10.6022 29.0976 9.32609 28.4224C9.02254 28.2613 8.90793 27.8865 9.069 27.5861C9.23007 27.2825 9.60486 27.1679 9.90531 27.329C11.5408 28.1932 15.552 28.7786 18.1228 27.7285C19.1233 27.3197 19.7583 26.7095 20.0092 25.9227C20.1114 25.5975 20.4614 25.4148 20.7867 25.5201C21.1119 25.6223 21.2946 25.9723 21.1893 26.2975C20.83 27.4374 19.9318 28.3264 18.5937 28.8746C17.4662 29.3361 16.0878 29.5375 14.7033 29.5375V29.5344Z" fill="black"/>
<path id="Vector_4" d="M16.5429 34.2822C17.7369 34.2822 18.7049 32.9786 18.7049 31.3706C18.7049 29.7626 17.7369 28.459 16.5429 28.459C15.3488 28.459 14.3809 29.7626 14.3809 31.3706C14.3809 32.9786 15.3488 34.2822 16.5429 34.2822Z" fill="black"/>
<path id="Vector_5" d="M35.7808 29.5343C34.3963 29.5343 33.0179 29.333 31.8905 28.8715C30.5524 28.3232 29.6541 27.4312 29.2948 26.2944C29.1926 25.9692 29.3722 25.6192 29.6975 25.517C30.0227 25.4147 30.3727 25.5944 30.4749 25.9196C30.7258 26.7064 31.3577 27.3166 32.3613 27.7254C34.929 28.7786 38.9433 28.1932 40.5788 27.3259C40.8823 27.1648 41.2571 27.2825 41.4151 27.583C41.5762 27.8865 41.4585 28.2613 41.158 28.4193C39.8819 29.0945 37.8283 29.5312 35.7808 29.5312V29.5343Z" fill="black"/>
<path id="Vector_6" d="M33.9418 34.2822C35.1359 34.2822 36.1038 32.9786 36.1038 31.3706C36.1038 29.7626 35.1359 28.459 33.9418 28.459C32.7478 28.459 31.7798 29.7626 31.7798 31.3706C31.7798 32.9786 32.7478 34.2822 33.9418 34.2822Z" fill="black"/>
</g>
</g>
</svg>
