<svg width="52" height="52" viewBox="0 0 52 52" fill="none" xmlns="http://www.w3.org/2000/svg">
<g id="_&#235;&#160;&#136;&#236;&#157;&#180;&#236;&#150;&#180;_9" clip-path="url(#clip0_2643_7949)">
<path id="Vector" d="M25.9985 51.9969C40.357 51.9969 51.9969 40.357 51.9969 25.9985C51.9969 11.6399 40.357 0 25.9985 0C11.6399 0 0 11.6399 0 25.9985C0 40.357 11.6399 51.9969 25.9985 51.9969Z" fill="#FFB800"/>
<path id="Vector_2" d="M31.6293 28.0859H20.3707C19.8597 28.0859 19.4478 28.5598 19.4478 29.1452C19.4478 32.7133 21.9689 35.6061 25.0755 35.6061H26.9215C30.0311 35.6061 32.5492 32.7133 32.5492 29.1452C32.5492 28.5598 32.1373 28.0859 31.6262 28.0859H31.6293Z" fill="#FF6600"/>
<g id="Group">
<path id="Vector_3" d="M10.6888 31.3788C12.7603 31.3788 14.4396 30.4095 14.4396 29.2138C14.4396 28.0181 12.7603 27.0488 10.6888 27.0488C8.61727 27.0488 6.93799 28.0181 6.93799 29.2138C6.93799 30.4095 8.61727 31.3788 10.6888 31.3788Z" fill="#FF6600"/>
<path id="Vector_4" d="M41.3113 31.3788C43.3828 31.3788 45.0621 30.4095 45.0621 29.2138C45.0621 28.0181 43.3828 27.0488 41.3113 27.0488C39.2398 27.0488 37.5605 28.0181 37.5605 29.2138C37.5605 30.4095 39.2398 31.3788 41.3113 31.3788Z" fill="#FF6600"/>
</g>
<g id="Group_2">
<path id="Vector_5" d="M24.4901 12.5115C24.0782 9.60631 21.3619 7.43822 18.4814 7.99883C16.2669 8.42935 14.7275 10.1979 14.4333 12.2452C14.3713 12.6695 13.8541 12.8399 13.5722 12.5146C12.2187 10.9412 9.95464 10.2846 7.85159 11.124C5.11981 12.2142 4.01718 15.5128 5.24989 18.1826C7.66266 23.4077 16.2545 25.4798 17.735 25.8019C17.8743 25.8329 18.0106 25.7926 18.1097 25.6904C19.1814 24.6157 25.2923 18.195 24.4901 12.5146V12.5115Z" fill="#FF4646"/>
<path id="Vector_6" d="M33.8873 25.6866C33.9895 25.7888 34.1227 25.8291 34.2621 25.7981C35.7425 25.476 44.3313 23.4039 46.7471 18.1788C47.9798 15.509 46.8772 12.2104 44.1454 11.1202C42.0424 10.2808 39.7783 10.9405 38.4248 12.5108C38.1429 12.836 37.6257 12.6688 37.5637 12.2414C37.2695 10.1941 35.7271 8.42863 33.5156 7.99502C30.6352 7.43441 27.9158 9.5994 27.5069 12.5077C26.7047 18.1881 32.8156 24.6088 33.8873 25.6835V25.6866Z" fill="#FF4646"/>
</g>
</g>
<defs>
<clipPath id="clip0_2643_7949">
<rect width="52" height="52" fill="white"/>
</clipPath>
</defs>
</svg>
