<svg width="24" height="24" viewBox="0 0 24 24" fill="none" xmlns="http://www.w3.org/2000/svg">
<circle cx="12" cy="12" r="12" fill="#3F3F3F"/>
<path d="M11.0312 18.1562C8.78125 18.1562 7.16406 16.9531 7.09375 15.1562H8.51562C8.59375 16.2344 9.66406 16.9062 11.0156 16.9062C12.5078 16.9062 13.5859 16.1016 13.5938 14.9219C13.5859 13.6875 12.6016 12.8203 10.8438 12.8125H9.92188V11.5781H10.8438C12.2188 11.5781 13.1797 10.8047 13.1719 9.64062C13.1797 8.50781 12.3516 7.75781 11.0625 7.75C9.85156 7.75781 8.75 8.42188 8.6875 9.53125H7.32812C7.39844 7.73438 9.07031 6.53125 11.0781 6.53125C13.2344 6.53125 14.5469 7.94531 14.5312 9.5625C14.5469 10.8516 13.7969 11.7891 12.6094 12.125V12.2031C14.0859 12.4297 14.9766 13.4844 14.9688 14.9219C14.9766 16.7812 13.2891 18.1562 11.0312 18.1562Z" fill="white"/>
</svg>
