<svg width="24" height="24" viewBox="0 0 24 24" fill="none" xmlns="http://www.w3.org/2000/svg">
<path d="M12.9725 4C10.7523 4 8.68582 4.88241 7.15601 6.48721C6.80739 6.85298 6.82115 7.43135 7.18812 7.78111C7.55509 8.12859 8.13536 8.11487 8.48628 7.74911C9.66747 6.51236 11.2615 5.82883 12.9748 5.82883C16.3899 5.82883 19.1674 8.59723 19.1674 12.0011C19.1674 15.4051 16.3899 18.1735 12.9748 18.1735C10.1216 18.1735 7.71335 16.2395 6.99775 13.6174L7.65601 14.1134C8.05968 14.4175 8.63536 14.3398 8.94041 13.9351C9.24545 13.5328 9.16747 12.959 8.76151 12.655L6.30739 10.8033C5.90372 10.4992 5.32803 10.5769 5.02299 10.9816L3.18584 13.4025C2.88079 13.8048 2.95878 14.3786 3.36474 14.6827C3.52987 14.8084 3.72483 14.8678 3.91749 14.8678C4.19501 14.8678 4.47024 14.7421 4.64914 14.5044L5.1606 13.83C5.99317 17.3619 9.17894 20 12.9725 20C17.3991 20 21 16.4109 21 11.9989C21 7.5868 17.3991 4 12.9725 4Z" fill="#333333"/>
</svg>
