<svg width="101" height="100" viewBox="0 0 101 100" fill="none" xmlns="http://www.w3.org/2000/svg">
<rect opacity="0.9" x="10.5" y="19" width="80" height="56" rx="8" fill="#C4E6FF"/>
<rect x="55.3164" y="34.3828" width="24.6154" height="24.6154" rx="3" fill="#F0FBFF"/>
<rect x="22.8125" y="39.2109" width="24.6154" height="5.33333" rx="1" fill="#F0FBFF"/>
<rect x="22.8125" y="48.4443" width="24.6154" height="5.33333" rx="1" fill="#F0FBFF"/>
<circle cx="82.5" cy="68" r="16" fill="#FF5B00"/>
<path d="M89.086 65.0948L80.4536 73.7272C80.0324 74.1483 79.3493 74.1483 78.9282 73.7272L75.9252 70.7241C75.4542 70.2532 75.4428 69.4704 75.9229 69.0086C76.3884 68.561 77.1281 68.5665 77.5867 69.0251L79.6909 71.1293L87.4057 63.4145C87.8698 62.9504 88.6219 62.9504 89.086 63.4145C89.5501 63.8786 89.5501 64.6307 89.086 65.0948Z" fill="white"/>
</svg>
