<svg width="80" height="80" viewBox="0 0 80 80" fill="none" xmlns="http://www.w3.org/2000/svg">
<path d="M80 40C80 52.0097 74.6794 62.8002 66.2732 70.1377C59.2418 76.2761 50.048 80 40 80C29.952 80 20.762 76.2786 13.7293 70.1402C5.32188 62.8039 0 52.0122 0 40C0 17.9436 17.9436 0 40 0C62.0564 0 80 17.9436 80 40Z" fill="#434343"/>
<path d="M39.9977 45.8028C47.8053 45.8028 54.1346 39.4735 54.1346 31.6659C54.1346 23.8583 47.8053 17.529 39.9977 17.529C32.1901 17.529 25.8608 23.8583 25.8608 31.6659C25.8608 39.4735 32.1901 45.8028 39.9977 45.8028Z" fill="#727272"/>
<path d="M66.272 70.1378C59.2406 76.2762 50.0467 80.0001 39.9988 80.0001C29.9508 80.0001 20.7607 76.2787 13.728 70.1403L13.7356 69.0879C13.9149 64.0545 15.8327 59.188 19.1352 55.3888C22.4013 51.6297 26.8879 49.0534 31.7682 48.1353L31.9664 48.0964L32.1445 48.1943C34.5402 49.5175 37.2544 50.2174 39.9988 50.2174C42.7431 50.2174 45.4561 49.5188 47.853 48.1943L48.0299 48.0964L48.2293 48.1341C53.1059 49.0534 57.5924 51.6297 60.8598 55.3875C64.1648 59.1905 66.0839 64.0558 66.2632 69.0879L66.2707 70.1378H66.272Z" fill="#727272"/>
</svg>
