<svg width="24" height="24" viewBox="0 0 24 24" fill="none" xmlns="http://www.w3.org/2000/svg">
<path d="M12 12C14.2091 12 16 10.2091 16 8C16 5.79086 14.2091 4 12 4C9.79086 4 8 5.79086 8 8C8 10.2091 9.79086 12 12 12Z" fill="#C2C2C2"/>
<path d="M19 17.527C17.1265 19.0662 14.6769 20 11.9997 20C9.32245 20 6.87382 19.0668 5 17.5276L5.00201 17.2637C5.04979 16.0016 5.56078 14.7813 6.4407 13.8286C7.31094 12.886 8.50635 12.24 9.80669 12.0097L9.8595 12L9.90695 12.0245C10.5453 12.3563 11.2685 12.5318 11.9997 12.5318C12.7309 12.5318 13.4537 12.3567 14.0924 12.0245L14.1395 12L14.1926 12.0094C15.492 12.24 16.6874 12.886 17.558 13.8283C18.4386 14.7819 18.9499 16.0019 18.9977 17.2637L18.9997 17.527H19Z" fill="#C2C2C2"/>
</svg>
